<?xml version="1.0" encoding="UTF-8"?>
<svg id="Layer_1" data-name="Layer 1" xmlns="http://www.w3.org/2000/svg" viewBox="0 0 72.51 71.16">
  <defs>
    <style>
      .cls-1 {
        fill: #ea0707;
      }
    </style>
  </defs>
  <path class="cls-1" d="m17.61,21.38h41.14c.83,0,1.51-.67,1.51-1.51s-.67-1.51-1.51-1.51H17.61c-4.23,0-7.68-3.44-7.68-7.68s3.44-7.68,7.68-7.68h41.14c.83,0,1.51-.67,1.51-1.51s-.67-1.51-1.51-1.51H17.61C11.72,0,6.92,4.8,6.92,10.69s4.8,10.69,10.69,10.69Z"/>
  <path class="cls-1" d="m55.95,6.4H15.85c-.39,0-.71.51-.71,1.13s.32,1.13.71,1.13h40.1c.39,0,.71-.51.71-1.13s-.32-1.13-.71-1.13Z"/>
  <path class="cls-1" d="m55.95,12.72H15.85c-.39,0-.71.51-.71,1.13s.32,1.13.71,1.13h40.1c.39,0,.71-.51.71-1.13s-.32-1.13-.71-1.13Z"/>
  <path d="m60.26,35.58c0-5.9-4.8-10.69-10.69-10.69H1.51c-.83,0-1.51.67-1.51,1.51s.67,1.51,1.51,1.51h48.06c4.23,0,7.68,3.44,7.68,7.68s-3.44,7.68-7.68,7.68H1.51c-.83,0-1.51.67-1.51,1.51s.67,1.51,1.51,1.51h48.06c5.9,0,10.69-4.8,10.69-10.69Z"/>
  <path d="m5.15,39.87h45c.38,0,.69-.51.69-1.13s-.31-1.13-.69-1.13H5.15c-.38,0-.69.51-.69,1.13s.31,1.13.69,1.13Z"/>
  <path d="m5.15,33.55h45c.38,0,.69-.51.69-1.13s-.31-1.13-.69-1.13H5.15c-.38,0-.69.51-.69,1.13s.31,1.13.69,1.13Z"/>
  <path class="cls-1" d="m71,68.15H17.96c-4.23,0-7.68-3.44-7.68-7.68s3.44-7.68,7.68-7.68h53.04c.83,0,1.51-.67,1.51-1.51s-.67-1.51-1.51-1.51H17.96c-5.9,0-10.69,4.8-10.69,10.69s4.8,10.69,10.69,10.69h53.04c.83,0,1.51-.67,1.51-1.51s-.67-1.51-1.51-1.51Z"/>
  <path class="cls-1" d="m69.14,56.18H15.9c-.42,0-.75.51-.75,1.13s.34,1.13.75,1.13h53.24c.42,0,.75-.51.75-1.13s-.34-1.13-.75-1.13Z"/>
  <path class="cls-1" d="m69.14,62.5H15.9c-.42,0-.75.51-.75,1.13s.34,1.13.75,1.13h53.24c.42,0,.75-.51.75-1.13s-.34-1.13-.75-1.13Z"/>
</svg>