<?xml version="1.0" encoding="UTF-8"?>
<svg id="Layer_1" data-name="Layer 1" xmlns="http://www.w3.org/2000/svg" viewBox="0 0 72.03 65.1">
  <defs>
    <style>
      .cls-1 {
        fill: #ea0707;
      }
    </style>
  </defs>
  <g id="_105_Team_Group_Project_Task_Assignment" data-name="105, Team, Group, Project, Task, Assignment">
    <g>
      <path class="cls-1" d="m58.73,27.9h-21.91v-3.84c0-.37-.38-.74-.75-.74s-.75.37-.75.74v3.84H11.77c-.38,0-.75.37-.75.74v6.2c0,.37.38.74.75.74s.75-.37.75-.74v-5.46h22.67v5.46c0,.37.38.74.75.74s.75-.37.75-.74v-5.46h21.29v5.46c0,.37.38.74.75.74s.75-.37.75-.74v-6.2c.12-.5-.25-.74-.75-.74Z"/>
      <path class="cls-1" d="m58.73,1.49h12.52c.38,0,.75-.37.75-.74s-.38-.74-.75-.74h-12.52c-.38,0-.75.37-.75.74s.38.74.75.74Z"/>
      <path class="cls-1" d="m71.25,4.59h-10.64c-.38,0-.75.37-.75.74s.38.74.75.74h10.64c.38,0,.75-.37.75-.74s-.25-.74-.75-.74Z"/>
      <path class="cls-1" d="m71.25,9.3h-8.64c-.38,0-.75.37-.75.74s.38.74.75.74h8.64c.38,0,.75-.37.75-.74s-.25-.74-.75-.74Z"/>
      <path class="cls-1" d="m71.25,13.89h-6.76c-.38,0-.75.37-.75.74s.38.74.75.74h6.76c.38,0,.75-.37.75-.74.12-.37-.25-.74-.75-.74Z"/>
      <path class="cls-1" d="m.88,1.49h12.52c.38,0,.75-.37.75-.74s-.38-.74-.75-.74H.88C.5,0,.12.37.12.74s.25.74.75.74Z"/>
      <path class="cls-1" d="m.88,6.2h10.64c.38,0,.75-.37.75-.74s-.38-.87-.88-.87H.75c-.38,0-.75.37-.75.74s.38.87.88.87Z"/>
      <path class="cls-1" d="m.88,10.79h8.64c.38,0,.75-.37.75-.74s-.38-.74-.75-.74H.88c-.38,0-.75.37-.75.74s.25.74.75.74Z"/>
      <path class="cls-1" d="m8.39,14.63c0-.37-.38-.74-.75-.74H.88c-.38,0-.75.37-.75.74s.38.74.75.74h6.76c.38.12.75-.25.75-.74Z"/>
      <path class="cls-1" d="m7.51,46.25c0,2.73,2.25,4.84,4.88,4.84s4.88-2.23,4.88-4.84-2.25-4.84-4.88-4.84-4.88,2.11-4.88,4.84Z"/>
      <path class="cls-1" d="m31.06,46.25c0,2.73,2.25,4.84,4.88,4.84s4.88-2.23,4.88-4.84-2.25-4.84-4.88-4.84-4.88,2.11-4.88,4.84Z"/>
      <path class="cls-1" d="m54.22,46.25c0,2.73,2.25,4.84,4.88,4.84s4.88-2.23,4.88-4.84-2.25-4.84-4.88-4.84-4.88,2.11-4.88,4.84Z"/>
      <path d="m48.59,1.49h-25.04v15.5h25.04V1.49Zm-4.63,9.8c0,.37-.38.74-.75.74s-.75-.37-.75-.74v-2.85l-5.01,3.72c-.25.25-.75.25-1-.12l-2.63-2.6-4.13,2.73c-.12.12-.25.12-.38.12-.25,0-.5-.12-.63-.37-.25-.37-.12-.87.25-1.12l4.76-3.1c.25-.25.75-.12,1,.12l2.63,2.6,4.51-3.35-3.01-1.12c-.38-.12-.63-.62-.5-.99.13-.37.63-.62,1-.5l4.38,1.49h.25l.13.12h0s0,.12.12.12h0v.12h0v.12h0v4.84h-.25Z"/>
      <path class="cls-1" d="m21.29,56.91l-3.51-1.12-4.63,2.6c-.25.12-.63.12-.75,0l-4.13-2.6-4.01,1.24c-1.25.37-2.38,1.98-2.38,3.6v4.46h3.51v-3.72c0-.37.38-.74.75-.74s.75.37.75.74v3.72h12.15v-3.72c0-.37.38-.74.75-.74h0c.38,0,.75.37.75.74v3.72h3.01v-4.59c0-1.49-1-3.1-2.25-3.6Z"/>
      <path class="cls-1" d="m68,56.91l-3.51-1.12-4.63,2.6c-.25.12-.63.12-.75,0l-4.13-2.6-4.01,1.24c-1.25.37-2.38,1.98-2.38,3.6v4.46h3.51v-3.72c0-.37.38-.74.75-.74s.75.37.75.74v3.72h12.15v-3.72c0-.37.38-.74.75-.74h0c.38,0,.75.37.75.74v3.72h3.01v-4.59c0-1.49-1-3.1-2.25-3.6Z"/>
      <path class="cls-1" d="m44.71,56.91l-3.51-1.12-4.63,2.6c-.25.12-.63.12-.75,0l-4.13-2.6-4.01,1.24c-1.25.37-2.38,1.98-2.38,3.6v4.46h3.51v-3.72c0-.37.38-.74.75-.74s.75.37.75.74v3.72h12.15v-3.72c0-.37.38-.74.75-.74h0c.38,0,.75.37.75.74v3.72h3.01v-4.59c.13-1.49-1-3.1-2.25-3.6Z"/>
    </g>
  </g>
</svg>