<?xml version="1.0" encoding="UTF-8"?>
<svg id="Layer_1" data-name="Layer 1" xmlns="http://www.w3.org/2000/svg" viewBox="0 0 70.28 50.92">
  <defs>
    <style>
      .cls-1 {
        fill: #ea0707;
      }
    </style>
  </defs>
  <g>
    <path class="cls-1" d="m3.14,39.19c0,1.18-.64,2.18-1.53,2.55l.03.14h7.22c.11,0,.22,0,.33,0,3.47,0,6.26-2.92,6.04-6.44-.19-3.01-2.64-5.47-5.65-5.65-3.52-.22-6.44,2.57-6.44,6.04v.11s0,0,0,0v3.23Z"/>
    <path class="cls-1" d="m5.69,42.47c-3.14,0-5.69,2.55-5.69,5.69v2.76h18.38v-2.76c0-3.14-2.55-5.69-5.69-5.69h-7.01Z"/>
    <path class="cls-1" d="m60.19,28.11V3.24c0-1.79-1.39-3.24-3.11-3.24H12.77c-1.71,0-3.11,1.45-3.11,3.24v25.22c.71.06,1.38.18,1.98.38V3.24c0-.69.5-1.26,1.12-1.26h44.31c.62,0,1.12.56,1.12,1.26v25.49c.6-.28,1.26-.49,1.98-.62Z"/>
    <path class="cls-1" d="m18.47,36.8c0,2.49,2.01,4.5,4.5,4.5s4.5-2.02,4.5-4.5-2.02-4.5-4.5-4.5-4.5,2.02-4.5,4.5Z"/>
    <path class="cls-1" d="m29.02,35.74c0,3.37,2.73,6.09,6.1,6.09s6.1-2.73,6.1-6.09-2.73-6.1-6.1-6.1-6.1,2.73-6.1,6.1Z"/>
    <path class="cls-1" d="m31.59,42.41c-3.16,0-5.73,2.56-5.73,5.73v2.78h18.52v-2.78c0-3.17-2.56-5.73-5.73-5.73h-7.06Z"/>
    <path class="cls-1" d="m61.02,29.64c-3.37,0-6.1,2.73-6.1,6.1s2.73,6.09,6.1,6.09,6.1-2.73,6.1-6.09-2.73-6.1-6.1-6.1Z"/>
    <path class="cls-1" d="m57.5,42.41c-3.16,0-5.73,2.56-5.73,5.73v2.78h18.52v-2.78c0-3.17-2.56-5.73-5.73-5.73h-7.05Z"/>
    <path class="cls-1" d="m44.66,41.72c-.98,0-1.89.34-2.6.9,1.82,1.12,3.04,3.11,3.08,5.39h5.95c.04-1.84.85-3.49,2.13-4.64-.77-1-1.98-1.65-3.35-1.65h-5.21Z"/>
    <path class="cls-1" d="m17.02,43.37c1.28,1.15,2.09,2.8,2.13,4.64h5.97c.04-2.27,1.26-4.26,3.07-5.38-.72-.56-1.62-.9-2.61-.9h-5.21c-1.36,0-2.57.65-3.35,1.65Z"/>
    <path class="cls-1" d="m46.93,32.31c-2.25.14-4.08,1.97-4.21,4.21-.16,2.62,1.92,4.8,4.5,4.8h.25s5.39,0,5.39,0l.02-.11c-.67-.27-1.14-1.02-1.14-1.9v-2.41h0v-.09c0-2.59-2.17-4.67-4.8-4.5Z"/>
  </g>
  <g>
    <path d="m47.31,7.26h-27.9c-.54,0-.97.44-.97.97v16.29c0,.54.44.97.97.97h33.62c.54,0,.97-.44.97-.97V8.24c0-.54-.44-.97-.97-.97h-5.72Zm5.72,17.26H19.41V8.24h33.62v16.29Z"/>
    <path d="m42.39,9.92h-3.29c-.14-.08-.27-.15-.42-.22-1.56-.74-3.35-.74-4.91,0-.14.07-.28.14-.42.22h-9.02c0,1.93-1.56,3.49-3.49,3.49v5.95c1.93,0,3.49,1.56,3.49,3.49h9.02c.14.08.28.15.42.22.78.37,1.61.56,2.45.56s1.67-.19,2.45-.56c.14-.07.28-.14.42-.22h9.02c0-1.93,1.56-3.49,3.49-3.49v-5.95c-1.93,0-3.49-1.56-3.49-3.49h-5.72Zm-12.32,11.95h-4.86c-.38-1.68-1.7-3.01-3.38-3.38v-4.22c1.68-.38,3.01-1.7,3.38-3.38h6.87c-1.38,1.35-2.21,3.34-2.21,5.49s.83,4.14,2.21,5.49h-2.01Zm8.4.75c-1.43.68-3.06.68-4.49,0-2.21-1.05-3.63-3.5-3.63-6.24s1.43-5.19,3.63-6.24c.71-.34,1.47-.51,2.24-.51s1.53.17,2.24.51c2.21,1.05,3.63,3.5,3.63,6.24s-1.43,5.19-3.63,6.24Zm12.16-8.35v4.22c-1.68.38-3.01,1.7-3.38,3.38h-6.87c1.38-1.35,2.21-3.34,2.21-5.49s-.83-4.14-2.21-5.49h6.87c.37,1.68,1.7,3.01,3.38,3.38Z"/>
  </g>
  <path d="m36.61,13.46c1.59,0,2.39.92,2.39,2.03,0,.81-.45,1.62-1.51,1.91l1.58,2.69h-1.54l-1.46-2.58h-.63v2.58h-1.33v-6.62h2.49Zm-.05,1.1h-1.11v1.95h1.11c.74,0,1.07-.39,1.07-.99s-.33-.96-1.07-.96Z"/>
</svg>