<?xml version="1.0" encoding="UTF-8"?>
<svg id="Layer_1" data-name="Layer 1" xmlns="http://www.w3.org/2000/svg" viewBox="0 0 72.61 70.3">
  <defs>
    <style>
      .cls-1 {
        fill: #ea0707;
      }
    </style>
  </defs>
  <g id="_101_user_up_arrow_Man_success" data-name="101, user, up, arrow, Man, success">
    <g>
      <path class="cls-1" d="m71.87,55.12h-18.55c-.37,0-.74.37-.74.73v5.39h-7.79v-23.03h-17.07v23.03h-8.54c-.37,0-.74.37-.74.74v6.86H.74c-.37,0-.74.37-.74.74s.37.74.74.74h18.55c.37,0,.74-.37.74-.74v-6.86h33.28c.37,0,.74-.37.74-.74v-5.39h17.81c.37,0,.74-.37.74-.74,0-.49-.37-.73-.74-.73Zm-36.37,6.12v-13.11c0-.37.37-.74.74-.74s.74.37.74.74v12.98h-1.48v.12Z"/>
      <path class="cls-1" d="m4.33,7.35l3.34-3.31v22.66c0,.37.37.74.74.74s.74-.37.74-.74V4.04l3.34,3.31c.12.12.37.25.5.25s.37-.12.49-.25c.25-.24.25-.73,0-1.1L8.78,1.59h0l-.12-.12h-.99s-.12,0-.12.12h0L2.84,6.25c-.25.25-.25.74,0,1.1.74.37,1.11.37,1.48,0Z"/>
      <path class="cls-1" d="m59.99,7.35l3.34-3.31v22.66c0,.37.37.74.74.74s.74-.37.74-.74V4.04l3.34,3.31c.12.12.37.25.49.25s.37-.12.49-.25c.25-.24.25-.73,0-1.1l-4.58-4.53-.12-.12h-.99s-.12,0-.12.12l-4.58,4.53c-.25.25-.25.74,0,1.1.5.37.87.37,1.24,0Z"/>
      <path class="cls-1" d="m23.87,39.81c1.24,0,2.35-.98,2.35-2.33v-13.84c0-.37.37-.74.74-.74s.74.37.74.74v12.98h17.07v-12.98c0-.37.37-.74.74-.74s.74.37.74.74v13.84c0,1.22.99,2.33,2.35,2.33s2.35-.98,2.35-2.33v-15.31c0-2.94-2.47-5.39-5.44-5.39h-18.55c-2.97,0-5.44,2.45-5.44,5.39v15.31c0,1.22,1.11,2.33,2.35,2.33Z"/>
      <path class="cls-1" d="m36.24,13.72c3.83,0,6.93-3.06,6.93-6.86s-3.09-6.86-6.93-6.86-6.93,3.06-6.93,6.86,3.09,6.86,6.93,6.86Z"/>
    </g>
  </g>
</svg>