<?xml version="1.0" encoding="UTF-8"?>
<svg id="Layer_1" data-name="Layer 1" xmlns="http://www.w3.org/2000/svg" viewBox="0 0 67.23 58.72">
  <defs>
    <style>
      .cls-1 {
        fill: #ea0707;
      }
    </style>
  </defs>
  <g>
    <path class="cls-1" d="m65.69,33.84c-1.75-4.11-8.04-3.53-10.48-2.76-1.08.34-1.79.93-2.58,1.74-.89.92-7.24,7.47-7.24,7.47l-7.84,2.98c-1.91.72-2.86,2.86-2.14,4.76.56,1.47,1.96,2.38,3.45,2.38.44,0,.88-.08,1.31-.24l8.61-3.27c.51-.19.96-.49,1.34-.88l.63-.65c.08,4.38.7,11.88.75,12.26.09.65.38,1.09,1.19,1.09h13.3c.7,0,1.16-.54,1.16-1.24.07-8.04.38-19.29-1.47-23.64Z"/>
    <path class="cls-1" d="m58.02,28.64c4.45,0,8.07-3.61,8.07-8.07s-3.61-8.07-8.07-8.07-8.07,3.61-8.07,8.07,3.61,8.07,8.07,8.07Z"/>
    <path class="cls-1" d="m34.19,35.85c-.93-1.82-3.15-2.54-4.97-1.61l-6.9,3.52s-3.82-2.65-5.05-3.55c-.78-.57-3.05-2.38-5.26-3.14-2.42-.83-8.73-1.35-10.48,2.76C-.32,38.18,0,49.43.06,57.48c0,.7.46,1.24,1.16,1.24h13.3c.81,0,1.1-.44,1.19-1.09.06-.42.81-9.52.76-13.52,0-.43,0-.9,0-1.39l3.51,2.38c.62.42,1.34.64,2.07.64.57,0,1.15-.13,1.68-.4l8.84-4.51c1.82-.93,2.54-3.15,1.61-4.97Z"/>
    <path class="cls-1" d="m9.21,28.64c4.46,0,8.07-3.61,8.07-8.07s-3.61-8.07-8.07-8.07S1.14,16.12,1.14,20.58s3.61,8.07,8.07,8.07Z"/>
  </g>
  <path class="cls-1" d="m33.6,0c-7.47,0-13.52,4.32-13.52,9.65,0,3.04,1.97,5.74,5.04,7.51-.29.88-.88,2.01-2.06,3.38-.75.87.13,2.15,1.2,1.75,2.22-.82,4.77-1.99,7.13-3.14.72.08,1.45.14,2.2.14,7.46,0,13.52-4.32,13.52-9.65S41.07,0,33.6,0Zm-7.44,11.98c-1.29,0-2.33-1.04-2.33-2.33s1.04-2.33,2.33-2.33,2.33,1.04,2.33,2.33-1.04,2.33-2.33,2.33Zm7.44,0c-1.29,0-2.33-1.04-2.33-2.33s1.04-2.33,2.33-2.33,2.33,1.04,2.33,2.33-1.04,2.33-2.33,2.33Zm7.43,0c-1.28,0-2.33-1.04-2.33-2.33s1.04-2.33,2.33-2.33,2.33,1.04,2.33,2.33-1.04,2.33-2.33,2.33Z"/>
</svg>