<?xml version="1.0" encoding="UTF-8"?>
<svg id="Layer_1" data-name="Layer 1" xmlns="http://www.w3.org/2000/svg" viewBox="0 0 85.77 85.78">
  <defs>
    <style>
      .cls-1 {
        fill: #e71e25;
      }
    </style>
  </defs>
  <path d="m39.76,85.78c-5.77,0-11.33-1.21-16.52-3.59-8.69-3.98-15.67-10.96-19.65-19.65C1.21,57.35,0,51.79,0,46.02,0,24.1,17.83,6.27,39.76,6.27c5.5,0,10.82,1.1,15.81,3.27.39.17.57.63.39,1.02l-1.01,2.22c-.17.38-.61.55-.99.38-4.48-1.94-9.25-2.92-14.2-2.92C20.02,10.23,3.96,26.29,3.96,46.02c0,5.19,1.09,10.2,3.23,14.87,3.58,7.83,9.87,14.11,17.69,17.69,4.68,2.14,9.68,3.22,14.87,3.23,19.74,0,35.79-16.06,35.79-35.79,0-4.94-.98-9.71-2.92-14.2-.16-.38,0-.82.38-.99l2.22-1.01c.39-.18.85,0,1.02.39,2.17,4.99,3.27,10.3,3.27,15.81,0,21.92-17.83,39.76-39.76,39.76Z"/>
  <path d="m39.76,75.48c-4.29,0-8.42-.9-12.28-2.68-6.41-2.94-11.56-8.09-14.5-14.5-1.77-3.86-2.67-7.99-2.68-12.28,0-16.24,13.21-29.45,29.45-29.45,4.02,0,7.91.79,11.56,2.36.4.17.58.63.4,1.02l-1.02,2.22c-.17.37-.61.54-.99.38-3.15-1.34-6.49-2.02-9.95-2.02-14.06,0-25.49,11.44-25.49,25.49,0,3.71.78,7.28,2.31,10.62,2.55,5.55,7,10.01,12.55,12.55,3.34,1.53,6.92,2.31,10.63,2.31,14.06,0,25.49-11.44,25.49-25.49,0-3.46-.68-6.81-2.02-9.95-.16-.38.01-.81.38-.99l2.22-1.02c.39-.18.85,0,1.02.4,1.56,3.65,2.36,7.54,2.36,11.56,0,16.24-13.21,29.45-29.45,29.45Z"/>
  <g>
    <circle class="cls-1" cx="39.76" cy="46.02" r="8.79"/>
    <path class="cls-1" d="m85.66,9.48c-.28-.85-1-1.46-1.88-1.59l-5.13-.76-.76-5.13c-.13-.88-.74-1.6-1.58-1.88-.85-.28-1.76-.06-2.39.57l-13.75,13.75c-.52.52-.77,1.27-.66,2l.91,6.17-.02-.02-17.38,17.38,2.8,2.8,17.38-17.38-.02-.02,6.08.9c.11.02.23.02.34.02.61,0,1.21-.24,1.66-.68l13.83-13.73c.63-.63.85-1.55.58-2.4Zm-16.63,12.75l-4.77-.71-.72-4.86,10.9-10.9.46,3.14c.15,1.03.95,1.83,1.98,1.98l3.12.46-10.97,10.89Z"/>
  </g>
  <path d="m53.88,40.45c.82,2.06,1.2,4.34,1.02,6.73-.58,7.63-6.85,13.69-14.49,14.01-8.77.37-16-6.73-15.84-15.46.14-7.85,6.35-14.37,14.19-14.88,2.41-.16,4.71.26,6.78,1.11.38.16.82,0,.99-.39.32-.71.65-1.46,1-2.23.17-.39,0-.85-.4-1.01-2.43-1.02-5.12-1.55-7.93-1.47-10.07.29-18.26,8.45-18.58,18.53-.35,11.05,8.72,20.12,19.78,19.76,10.02-.33,18.15-8.44,18.5-18.46.1-2.78-.4-5.43-1.38-7.85-.16-.4-.63-.59-1.03-.4l-2.22,1.02c-.37.17-.54.6-.39.98Z"/>
</svg>