<?xml version="1.0" encoding="UTF-8"?>
<svg id="Layer_1" data-name="Layer 1" xmlns="http://www.w3.org/2000/svg" viewBox="0 0 72.15 54.28">
  <defs>
    <style>
      .cls-1 {
        fill: #ea0707;
      }
    </style>
  </defs>
  <g id="_118_Presentation_solution_strategy_business_man" data-name="118, Presentation, solution, strategy, business, man">
    <g>
      <path d="m18.83,8.13c2.4,0,4.4-1.85,4.4-4.07s-2-4.07-4.4-4.07-4.4,1.85-4.4,4.07,1.9,4.07,4.4,4.07Z"/>
      <path d="m45.22,15.06c-.2-.09-.5,0-.6.19l-4.8,5.54h-2.3c-.3,0-.6.28-.6.56s.3.55.6.55h21.29c.3,0,.6-.28.6-.55V7.58c0-.28-.3-.55-.6-.55h-23.79c-.3,0-.6.28-.6.55s.3.55.6.55h23.09v12.75h-16.79l3.9-4.53,4.6,1.11c.3.09.5,0,.7-.28l2.1-2.96.3,2.03c0,.28.3.46.6.46h.1c.3,0,.6-.37.5-.65l-.5-3.42c0-.28-.4-.55-.7-.46l-3.7.46c-.3,0-.6.37-.5.65,0,.28.4.55.7.46l2.2-.28-1.9,2.68-4.5-1.11Z"/>
      <path d="m63.82,2.4H28.83c-.3,0-.6.28-.6.55v3.51c0,.28.3.56.6.56s.6-.28.6-.56v-2.86h33.79v21.99H30.03c-.3,0-.6.28-.6.55s.3.56.6.56h33.79c.3,0,.6-.28.6-.56V2.96c0-.28-.3-.55-.6-.55Z"/>
      <path d="m24.43,46.3V15.71c0-.28.3-.55.6-.55h8.8c1.5,0,2.8-1.02,3.1-2.31H12.53c-1.7,0-3.1,1.29-3.1,2.86v13.86c0,1.39,1.1,2.59,2.5,2.87v-14.42c0-.28.3-.55.6-.55s.6.28.6.55v28.37m6.3-.09h-1.3v-13.31c0-.28.3-.55.6-.55s.6.28.6.55v13.31h.1Z"/>
    </g>
  </g>
  <g>
    <path class="cls-1" d="m3.23,42.24c0,1.21-.66,2.24-1.57,2.62l.03.15h7.41c.11,0,.23,0,.34,0,3.56,0,6.42-3,6.2-6.61-.19-3.09-2.71-5.61-5.8-5.8-3.61-.22-6.61,2.64-6.61,6.2v.12s0,0,0,0v3.32Z"/>
    <path class="cls-1" d="m5.84,45.61c-3.22,0-5.84,2.61-5.84,5.84v2.83h18.87v-2.83c0-3.22-2.61-5.84-5.84-5.84h-7.19Z"/>
    <path class="cls-1" d="m18.96,39.78c0,2.55,2.07,4.62,4.62,4.62s4.62-2.07,4.62-4.62-2.07-4.62-4.62-4.62-4.62,2.07-4.62,4.62Z"/>
    <path class="cls-1" d="m29.79,38.69c0,3.45,2.8,6.26,6.26,6.26s6.26-2.8,6.26-6.26-2.8-6.26-6.26-6.26-6.26,2.8-6.26,6.26Z"/>
    <path class="cls-1" d="m32.43,45.54c-3.25,0-5.88,2.63-5.88,5.88v2.85h19.01v-2.85c0-3.25-2.63-5.88-5.88-5.88h-7.24Z"/>
    <path class="cls-1" d="m62.64,32.44c-3.46,0-6.26,2.8-6.26,6.26s2.8,6.26,6.26,6.26,6.26-2.8,6.26-6.26-2.8-6.26-6.26-6.26Z"/>
    <path class="cls-1" d="m59.02,45.54c-3.25,0-5.88,2.63-5.88,5.88v2.85h19.01v-2.85c0-3.25-2.63-5.88-5.88-5.88h-7.24Z"/>
    <path class="cls-1" d="m45.84,44.84c-1.01,0-1.94.35-2.67.92,1.86,1.15,3.12,3.19,3.16,5.53h6.11c.04-1.89.87-3.58,2.18-4.76-.79-1.03-2.04-1.69-3.44-1.69h-5.35Z"/>
    <path class="cls-1" d="m17.47,46.54c1.31,1.18,2.15,2.87,2.18,4.76h6.13c.04-2.33,1.3-4.37,3.15-5.52-.74-.58-1.67-.93-2.68-.93h-5.35c-1.4,0-2.64.67-3.44,1.69Z"/>
    <path class="cls-1" d="m48.18,35.18c-2.31.14-4.18,2.02-4.33,4.33-.17,2.69,1.97,4.93,4.62,4.93h.26s5.53,0,5.53,0l.02-.11c-.68-.28-1.17-1.05-1.17-1.95v-2.47h0v-.09c0-2.66-2.23-4.79-4.92-4.62Z"/>
  </g>
</svg>