<?xml version="1.0" encoding="UTF-8"?>
<svg id="Layer_1" data-name="Layer 1" xmlns="http://www.w3.org/2000/svg" viewBox="0 0 72.01 70.3">
  <defs>
    <style>
      .cls-1 {
        fill: #ea0707;
      }
    </style>
  </defs>
  <g>
    <path class="cls-1" d="m49.1,46.79h-26.2c-1.15,0-2.08-.93-2.08-2.08h30.35c0,1.15-.93,2.08-2.08,2.08Z"/>
    <rect class="cls-1" x="23.21" y="56.47" width="25.59" height="2.08" transform="translate(93.51 21.51) rotate(90)"/>
  </g>
  <g>
    <g>
      <g>
        <path class="cls-1" d="m26.94,52.13c-.64-1.47-2.1-2.4-3.7-2.35l-9.38.3-.24-7.53s.04-.07.08-.06l10.16,3.23c.93.3,1.92-.22,2.22-1.15h0c.3-.93-.22-1.92-1.15-2.22l-6.01-1.91c-3.25-1.03-5.49-4-5.6-7.41h0c-.08-2.52-2.19-4.5-4.71-4.42h0c-2.52.08-4.5,2.19-4.42,4.71l.55,17.04c.11,3.43,2.98,6.12,6.41,6.01l2.92-.09h0l8.58-.27c.39-.01.75.21.9.57l5.3,12.24c.54,1.24,1.98,1.81,3.22,1.27h0c1.24-.54,1.81-1.98,1.27-3.22l-6.39-14.75Z"/>
        <path class="cls-1" d="m11.09,26.97c1.56-.92,2.67-2.57,2.8-4.52.22-3.15-2.14-5.88-5.29-6.1-3.15-.22-5.88,2.14-6.1,5.29-.17,2.44,1.21,4.62,3.3,5.59.61.28,1.28.46,1.99.51,1.2.09,2.34-.21,3.3-.77Z"/>
      </g>
      <path class="cls-1" d="m4.5,55.98l-1.95-13.95c-.08-.57-.6-.96-1.17-.88h0c-.57.08-.96.6-.88,1.17l2.17,15.54v.16L.01,69.77c-.06.27.15.54.43.54h1.23c.21,0,.38-.14.43-.34l2.69-11.9h11.99v11.81c0,.24.2.44.44.44h1.2c.24,0,.44-.2.44-.44v-13.88H4.5Z"/>
    </g>
    <g>
      <g>
        <path class="cls-1" d="m45.07,52.13c.64-1.47,2.1-2.4,3.7-2.35l9.38.3.24-7.53s-.04-.07-.08-.06l-10.16,3.23c-.93.3-1.92-.22-2.22-1.15h0c-.3-.93.22-1.92,1.15-2.22l6.01-1.91c3.25-1.03,5.49-4,5.6-7.41h0c.08-2.52,2.19-4.5,4.71-4.42h0c2.52.08,4.5,2.19,4.42,4.71l-.55,17.04c-.11,3.43-2.98,6.12-6.41,6.01l-2.92-.09h0l-8.58-.27c-.39-.01-.75.21-.9.57l-5.3,12.24c-.54,1.24-1.98,1.81-3.22,1.27h0c-1.24-.54-1.81-1.98-1.27-3.22l6.39-14.75Z"/>
        <path class="cls-1" d="m60.92,26.97c-1.56-.92-2.67-2.57-2.8-4.52-.22-3.15,2.14-5.88,5.29-6.1,3.15-.22,5.88,2.14,6.1,5.29.17,2.44-1.21,4.62-3.3,5.59-.61.28-1.28.46-1.99.51-1.2.09-2.34-.21-3.3-.77Z"/>
      </g>
      <path class="cls-1" d="m67.51,55.98l1.95-13.95c.08-.57.6-.96,1.17-.88h0c.57.08.96.6.88,1.17l-2.17,15.54v.16l2.66,11.75c.06.27-.15.54-.43.54h-1.23c-.21,0-.38-.14-.43-.34l-2.69-11.9h-11.99v11.81c0,.24-.2.44-.44.44h-1.2c-.24,0-.44-.2-.44-.44v-13.88h14.35Z"/>
    </g>
  </g>
  <path d="m53.75,18.37V7.17c0-1.32-1.07-2.4-2.4-2.4h-9.14v6.55h4.62c.31,0,.57.25.57.57s-.25.57-.57.57h-4.62v1.29c0,2.12-1.73,3.85-3.85,3.85h-6.9v.77c0,1.32,1.07,2.4,2.4,2.4h12.19l7.7,4.19-2.8-4.19h.41c1.32,0,2.4-1.07,2.4-2.4Zm-4.86-3.63h-1.62c-.31,0-.57-.25-.57-.57s.25-.57.57-.57h1.62c.31,0,.57.25.57.57s-.25.57-.57.57Zm1.97-2.28h-1.62c-.31,0-.57-.25-.57-.57s.25-.57.57-.57h1.62c.31,0,.57.25.57.57s-.25.57-.57.57Z"/>
  <path d="m40.76,13.75V2.4c0-1.32-1.07-2.4-2.4-2.4h-17.71c-1.32,0-2.4,1.07-2.4,2.4v11.35c0,1.32,1.07,2.4,2.4,2.4h.43l-2.83,4.23,7.78-4.23h12.33c1.32,0,2.4-1.07,2.4-2.4Zm-9.72-8.11h.73c.31,0,.57.25.57.57s-.25.57-.57.57h-.73c-.31,0-.57-.25-.57-.57s.25-.57.57-.57Zm-8.45.57c0-.31.25-.57.57-.57h5.53c.31,0,.57.25.57.57s-.25.57-.57.57h-5.53c-.31,0-.57-.25-.57-.57Zm2.52,2.84c-.31,0-.57-.25-.57-.57s.25-.57.57-.57h5.53c.31,0,.57.25.57.57s-.25.57-.57.57h-5.53Zm7.67,2.28h-1.73c-.31,0-.57-.25-.57-.57s.25-.57.57-.57h1.73c.31,0,.57.25.57.57s-.25.57-.57.57Zm2.05-2.28h-1.73c-.31,0-.57-.25-.57-.57s.25-.57.57-.57h1.73c.31,0,.57.25.57.57s-.25.57-.57.57Zm.92-2.27h-1.73c-.31,0-.57-.25-.57-.57s.25-.57.57-.57h1.73c.31,0,.57.25.57.57s-.25.57-.57.57Z"/>
</svg>