<?xml version="1.0" encoding="UTF-8"?>
<svg id="Layer_1" data-name="Layer 1" xmlns="http://www.w3.org/2000/svg" viewBox="0 0 87.19 91.09">
  <defs>
    <style>
      .cls-1 {
        fill: #e71e25;
      }
    </style>
  </defs>
  <g>
    <rect class="cls-1" x="41.25" width="4.7" height="17.36" rx="1.02" ry="1.02"/>
    <rect class="cls-1" x="14.67" y="5.36" width="4.7" height="17.36" rx="1.02" ry="1.02" transform="translate(-5.04 14.42) rotate(-40.5)"/>
    <rect class="cls-1" x="61.49" y="11.69" width="17.36" height="4.7" rx="1.02" ry="1.02" transform="translate(13.92 58.28) rotate(-49.5)"/>
  </g>
  <path d="m87,40.09l-1.63-1.87-10.38-11.86c-.15-.17-.36-.27-.59-.27H12.93c-.22,0-.44.1-.59.27L1.97,38.23l-1.77,2.03c-.25.29-.26.73,0,1.02l1.44,1.68,39.17,45.53,2.01,2.33c.31.36.87.36,1.18,0l2.02-2.34,39.4-45.53,1.59-1.84c.25-.29.25-.73,0-1.02Zm-27.48-9.29h12.99c.07,0,.14.03.19.09l6.05,6.92c.14.16.03.42-.19.42h-14.75c-.09,0-.17-.05-.22-.12l-4.3-6.92c-.11-.17.02-.39.22-.39Zm-30.09,7.04l4.29-6.92c.05-.07.13-.12.22-.12h19.44c.09,0,.17.05.22.12l4.3,6.92c.11.17-.02.39-.22.39h-3.04v.02h-23.06v-.02h-1.94c-.2,0-.32-.22-.22-.39Zm-20.86-.03l6.05-6.92c.05-.06.12-.09.19-.09h12.99c.2,0,.32.22.22.39l-4.3,6.92c-.05.07-.13.12-.22.12h-14.75c-.22,0-.34-.26-.19-.42Zm-.75,5.14h20.21l10.13,35.27L7.83,42.95Zm35.52,36.28l-10.42-36.28h20.41l-9.99,36.28Zm5.07-.72l9.79-35.56h20.98l-30.78,35.56Z"/>
</svg>