<?xml version="1.0" encoding="UTF-8"?>
<svg id="Layer_1" data-name="Layer 1" xmlns="http://www.w3.org/2000/svg" viewBox="0 0 88.88 90.89">
  <defs>
    <style>
      .cls-1 {
        fill: #e71e25;
      }
    </style>
  </defs>
  <circle class="cls-1" cx="44.44" cy="45.93" r="10.55" transform="translate(-19.23 51.48) rotate(-50.93)"/>
  <g>
    <path d="m75.38,31.67c-5.34-2.9-16.45-7.76-30.94-7.76s-25.6,4.86-30.94,7.76c-6.53,3.55-13.5,9.16-13.5,14.26s6.98,10.71,13.5,14.26c5.34,2.9,16.45,7.76,30.94,7.76s25.6-4.86,30.94-7.76c6.53-3.55,13.5-9.16,13.5-14.26s-6.98-10.71-13.5-14.26ZM15.54,56.45c-7.78-4.23-11.28-8.7-11.28-10.52s3.5-6.29,11.28-10.52c3.28-1.78,8.88-4.35,16.19-5.91-4.91,3.8-8.07,9.75-8.07,16.43s3.16,12.62,8.07,16.43c-7.31-1.55-12.91-4.13-16.19-5.91Zm28.9,6.01c-9.11,0-16.53-7.41-16.53-16.53s7.41-16.53,16.53-16.53,16.53,7.41,16.53,16.53-7.41,16.53-16.53,16.53Zm28.9-6.01c-3.28,1.78-8.88,4.35-16.19,5.91,4.91-3.8,8.07-9.75,8.07-16.43s-3.16-12.62-8.07-16.43c7.31,1.55,12.91,4.13,16.19,5.91,7.78,4.23,11.28,8.7,11.28,10.52s-3.5,6.29-11.28,10.52Z"/>
    <rect x="42.31" width="4.25" height="15.72" rx=".7" ry=".7"/>
    <rect x="8.88" y="8.98" width="4.25" height="15.72" rx=".7" ry=".7" transform="translate(-8.3 11.19) rotate(-40.5)"/>
    <rect x="70.01" y="14.72" width="15.72" height="4.25" rx=".7" ry=".7" transform="translate(14.49 65.12) rotate(-49.5)"/>
    <rect x="42.31" y="75.17" width="4.25" height="15.72" rx=".7" ry=".7"/>
    <rect x="75.74" y="66.18" width="4.25" height="15.72" rx=".7" ry=".7" transform="translate(-29.43 68.31) rotate(-40.5)"/>
    <rect x="3.15" y="71.92" width="15.72" height="4.25" rx=".7" ry=".7" transform="translate(-52.44 34.33) rotate(-49.5)"/>
  </g>
</svg>